static_00
version=1
nRows=13
nColumns=46
inDegrees=yes
endheader
time	ground_force1_vx	ground_force1_vy	ground_force1_vz	ground_force1_px	ground_force1_py	ground_force1_pz	ground_torque1_x	ground_torque1_y	ground_torque1_z	ground_force2_vx	ground_force2_vy	ground_force2_vz	ground_force2_px	ground_force2_py	ground_force2_pz	ground_torque2_x	ground_torque2_y	ground_torque2_z	ground_force3_vx	ground_force3_vy	ground_force3_vz	ground_force3_px	ground_force3_py	ground_force3_pz	ground_torque3_x	ground_torque3_y	ground_torque3_z	ground_force4_vx	ground_force4_vy	ground_force4_vz	ground_force4_px	ground_force4_py	ground_force4_pz	ground_torque4_x	ground_torque4_y	ground_torque4_z	ground_force5_vx	ground_force5_vy	ground_force5_vz	ground_force5_px	ground_force5_py	ground_force5_pz	ground_torque5_x	ground_torque5_y	ground_torque5_z
0.035000	-0.000000	-0.000000	0.000000	0.200000	0.000000	0.920000	0.000000	0.000000	0.000000	-0.000000	-0.000000	0.000000	0.200000	0.000000	0.320000	0.000000	0.000000	0.000000	-0.000000	-0.000000	0.000000	0.200000	0.000000	-0.300000	0.000000	0.000000	0.000000	-0.241463	575.457397	2.264974	0.164915	0.000000	-0.841518	0.000015	-0.171467	0.000009	-0.000000	-0.000000	0.000000	0.200000	0.000000	-1.500000	0.000000	0.000000	0.000000	
0.035500	-0.000000	-0.000000	0.000000	0.200000	0.000000	0.920000	0.000000	0.000000	0.000000	-0.000000	-0.000000	0.000000	0.200000	0.000000	0.320000	0.000000	0.000000	0.000000	-0.000000	-0.000000	0.000000	0.200000	0.000000	-0.300000	0.000000	0.000000	0.000000	-0.565865	576.740479	2.345241	0.165100	0.000000	-0.841531	0.000011	-0.145747	0.000008	-0.000000	-0.000000	0.000000	0.200000	0.000000	-1.500000	0.000000	0.000000	0.000000	
0.036000	-0.000000	-0.000000	0.000000	0.200000	0.000000	0.920000	0.000000	0.000000	0.000000	-0.000000	-0.000000	0.000000	0.200000	0.000000	0.320000	0.000000	0.000000	0.000000	-0.000000	-0.000000	0.000000	0.200000	0.000000	-0.300000	0.000000	0.000000	0.000000	-0.890266	578.023560	2.425508	0.165285	0.000000	-0.841543	0.000005	-0.120046	-0.000000	-0.000000	-0.000000	0.000000	0.200000	0.000000	-1.500000	0.000000	0.000000	0.000000	
0.036500	-0.000000	-0.000000	0.000000	0.200000	0.000000	0.920000	0.000000	0.000000	0.000000	-0.000000	-0.000000	0.000000	0.200000	0.000000	0.320000	0.000000	0.000000	0.000000	-0.000000	-0.000000	0.000000	0.200000	0.000000	-0.300000	0.000000	0.000000	0.000000	-0.728452	578.180969	2.424999	0.165142	0.000000	-0.841512	0.000020	-0.091110	0.000009	-0.000000	-0.000000	0.000000	0.200000	0.000000	-1.500000	0.000000	0.000000	0.000000	
0.037000	-0.000000	-0.000000	0.000000	0.200000	0.000000	0.920000	0.000000	0.000000	0.000000	-0.000000	-0.000000	0.000000	0.200000	0.000000	0.320000	0.000000	0.000000	0.000000	-0.000000	-0.000000	0.000000	0.200000	0.000000	-0.300000	0.000000	0.000000	0.000000	-0.566637	578.338379	2.424489	0.164999	0.000000	-0.841481	-0.000012	-0.062164	0.000000	-0.000000	-0.000000	0.000000	0.200000	0.000000	-1.500000	0.000000	0.000000	0.000000	
0.037500	-0.000000	-0.000000	0.000000	0.200000	0.000000	0.920000	0.000000	0.000000	0.000000	-0.000000	-0.000000	0.000000	0.200000	0.000000	0.320000	0.000000	0.000000	0.000000	-0.000000	-0.000000	0.000000	0.200000	0.000000	-0.300000	0.000000	0.000000	0.000000	-0.970788	577.218750	1.940336	0.164992	0.000000	-0.841564	0.000034	-0.079627	0.000004	-0.000000	-0.000000	0.000000	0.200000	0.000000	-1.500000	0.000000	0.000000	0.000000	
0.038000	-0.000000	-0.000000	0.000000	0.200000	0.000000	0.920000	0.000000	0.000000	0.000000	-0.000000	-0.000000	0.000000	0.200000	0.000000	0.320000	0.000000	0.000000	0.000000	-0.000000	-0.000000	0.000000	0.200000	0.000000	-0.300000	0.000000	0.000000	0.000000	-1.374939	576.099121	1.456183	0.164985	0.000000	-0.841648	0.000027	-0.097030	0.000003	-0.000000	-0.000000	0.000000	0.200000	0.000000	-1.500000	0.000000	0.000000	0.000000	
0.038500	-0.000000	-0.000000	0.000000	0.200000	0.000000	0.920000	0.000000	0.000000	0.000000	-0.000000	-0.000000	0.000000	0.200000	0.000000	0.320000	0.000000	0.000000	0.000000	-0.000000	-0.000000	0.000000	0.200000	0.000000	-0.300000	0.000000	0.000000	0.000000	-0.808201	575.457642	1.214872	0.164872	0.000000	-0.841393	0.000034	-0.098769	0.000005	-0.000000	-0.000000	0.000000	0.200000	0.000000	-1.500000	0.000000	0.000000	0.000000	
0.039000	-0.000000	-0.000000	0.000000	0.200000	0.000000	0.920000	0.000000	0.000000	0.000000	-0.000000	-0.000000	0.000000	0.200000	0.000000	0.320000	0.000000	0.000000	0.000000	-0.000000	-0.000000	0.000000	0.200000	0.000000	-0.300000	0.000000	0.000000	0.000000	-0.241463	574.816223	0.973560	0.164759	0.000000	-0.841139	0.000016	-0.100275	0.000008	-0.000000	-0.000000	0.000000	0.200000	0.000000	-1.500000	0.000000	0.000000	0.000000	
0.039500	-0.000000	-0.000000	0.000000	0.200000	0.000000	0.920000	0.000000	0.000000	0.000000	-0.000000	-0.000000	0.000000	0.200000	0.000000	0.320000	0.000000	0.000000	0.000000	-0.000000	-0.000000	0.000000	0.200000	0.000000	-0.300000	0.000000	0.000000	0.000000	-0.483027	574.815735	1.457713	0.164667	0.000000	-0.841210	0.000037	-0.184411	0.000001	-0.000000	-0.000000	0.000000	0.200000	0.000000	-1.500000	0.000000	0.000000	0.000000	
0.040000	-0.000000	-0.000000	0.000000	0.200000	0.000000	0.920000	0.000000	0.000000	0.000000	-0.000000	-0.000000	0.000000	0.200000	0.000000	0.320000	0.000000	0.000000	0.000000	-0.000000	-0.000000	0.000000	0.200000	0.000000	-0.300000	0.000000	0.000000	0.000000	-0.724591	574.815247	1.941866	0.164575	0.000000	-0.841281	0.000028	-0.268423	0.000003	-0.000000	-0.000000	0.000000	0.200000	0.000000	-1.500000	0.000000	0.000000	0.000000	
0.040500	-0.000000	-0.000000	0.000000	0.200000	0.000000	0.920000	0.000000	0.000000	0.000000	-0.000000	-0.000000	0.000000	0.200000	0.000000	0.320000	0.000000	0.000000	0.000000	-0.000000	-0.000000	0.000000	0.200000	0.000000	-0.300000	0.000000	0.000000	0.000000	-0.725363	574.016968	2.021113	0.164623	0.000000	-0.841349	0.000028	-0.185062	0.000003	-0.000000	-0.000000	0.000000	0.200000	0.000000	-1.500000	0.000000	0.000000	0.000000	
0.041000	-0.000000	-0.000000	0.000000	0.200000	0.000000	0.920000	0.000000	0.000000	0.000000	-0.000000	-0.000000	0.000000	0.200000	0.000000	0.320000	0.000000	0.000000	0.000000	-0.000000	-0.000000	0.000000	0.200000	0.000000	-0.300000	0.000000	0.000000	0.000000	-0.726135	573.218750	2.100360	0.164671	0.000000	-0.841419	0.000013	-0.101709	0.000010	-0.000000	-0.000000	0.000000	0.200000	0.000000	-1.500000	0.000000	0.000000	0.000000	
